<svg width="32" height="32" viewBox="0 0 32 32" fill="none" xmlns="http://www.w3.org/2000/svg">
<path d="M18.44 21.6683C18.2408 21.669 18.044 21.6251 17.864 21.5397C17.6841 21.4543 17.5255 21.3297 17.4 21.175L10.96 13.175C10.7639 12.9364 10.6567 12.6372 10.6567 12.3283C10.6567 12.0195 10.7639 11.7202 10.96 11.4817L17.6267 3.48167C17.853 3.20938 18.1782 3.03815 18.5308 3.00564C18.8833 2.97314 19.2344 3.08202 19.5067 3.30834C19.779 3.53465 19.9502 3.85987 19.9827 4.21244C20.0152 4.56501 19.9063 4.91605 19.68 5.18834L13.72 12.335L19.48 19.4817C19.643 19.6774 19.7466 19.9157 19.7785 20.1684C19.8103 20.4212 19.7691 20.6777 19.6597 20.9078C19.5503 21.1378 19.3772 21.3317 19.1611 21.4665C18.9449 21.6013 18.6947 21.6713 18.44 21.6683Z" fill="black"/>
</svg>
