<svg width="48" height="28" viewBox="0 0 48 28" fill="none" xmlns="http://www.w3.org/2000/svg">
<path d="M24 0.669998L23.5305 0.812498L4.78052 7.0945L0.517517 8.5L3.00002 9.295V22.42C2.10452 22.9405 1.50002 23.89 1.50002 25C1.50002 25.7956 1.81609 26.5587 2.3787 27.1213C2.94131 27.6839 3.70437 28 4.50002 28C5.29567 28 6.05873 27.6839 6.62134 27.1213C7.18395 26.5587 7.50002 25.7956 7.50002 25C7.50002 23.89 6.89552 22.9405 6.00002 22.42V10.33L9.00002 11.3125V19C9.00002 20.23 9.75002 21.25 10.641 21.955C11.532 22.6555 12.639 23.1505 13.968 23.5945C16.629 24.4795 20.136 25 24 25C27.864 25 31.371 24.481 34.032 23.593C35.361 23.1505 36.468 22.6555 37.359 21.9535C38.25 21.25 39 20.23 39 19V11.3125L43.2195 9.9055L47.4825 8.5L43.218 7.093L24.468 0.812498L24 0.669998ZM24 3.8125L38.0625 8.5L24 13.1875L9.93752 8.5L24 3.8125ZM12 12.3445L23.532 16.1875L24 16.3285L24.4695 16.186L36 12.343V19C36 19.015 36.006 19.189 35.5305 19.5625C35.0565 19.9375 34.206 20.41 33.093 20.782C30.87 21.5215 27.5925 22 24 22C20.4075 22 17.13 21.523 14.9055 20.7805C13.7955 20.41 12.9435 19.936 12.4695 19.5625C11.9925 19.1875 12 19.015 12 19V12.343V12.3445Z" fill="#0FAB76"/>
</svg>
